<svg width="38" height="38" xmlns="http://www.w3.org/2000/svg" class="iconLeft">
 <!---->
 <defs>
  <!---->
 </defs>
 <defs>
  <!---->
 </defs>
 <defs>
  <!---->
 </defs>
 <!---->
 <g>
  <title>Layer 1</title>
  <g transform="matrix(0.46551 0 0 0.46551 35.3449 126.724)" fill="#762A0C" id="f707daed-9e6c-41b1-9d4d-8d7674693ec8">
   <path fill="#E87D22" id="svg_3" d="m-53.12162,-203.07854c2,0 4,-4 8,-4s6,4 10.067,4c3.933,0 5.933,-4 9.933,-4c5,0 6,4 8,4c1,0 2,-1 2,-2l0,-23c0,-27 -40,-27 -40,0l0,23c0,1 1,2 2,2zm10,-20c-2.267,0 -4,-1.733 -4,-4c0,-2.266 1.733,-4 4,-4s4,1.734 4,4c0,2.267 -1.733,4 -4,4zm16,0c-2.267,0 -4,-1.733 -4,-4c0,-2.266 1.733,-4 4,-4s4,1.734 4,4c0,2.267 -1.733,4 -4,4zm-44.667,31.667c-3.333,0 -3.333,0 -3.333,-3.333l0,-73.334c0,-3.333 0,-3.333 3.333,-3.333l73.334,0c3.333,0 3.333,0 3.333,3.333l0,73.334c0,3.333 0,3.333 -3.333,3.333l-73.334,0zm6.667,-66.667a3.301,3.301 0 0 0 3.333,-3.333a3.301,3.301 0 0 0 -3.333,-3.333a3.301,3.301 0 0 0 -3.333,3.333a3.301,3.301 0 0 0 3.333,3.333zm10.067,0c1.933,0 3.333,-1.466 3.333,-3.333c0,-1.867 -1.4,-3.333 -3.333,-3.333a3.301,3.301 0 0 0 -3.334,3.333a3.301,3.301 0 0 0 3.334,3.333zm9.933,0a3.301,3.301 0 0 0 3.333,-3.333a3.301,3.301 0 0 0 -3.333,-3.333a3.301,3.301 0 0 0 -3.333,3.333a3.301,3.301 0 0 0 3.333,3.333zm0,0"/>
  </g>
 </g>
</svg>