<svg width="220" height="43" xmlns="http://www.w3.org/2000/svg" class="iconLeft">
 <!---->
 <defs>
  <!---->
 </defs>
 <defs>
  <!---->
 </defs>
 <defs>
  <!---->
 </defs>
 <!---->
 <g>
  <title>Layer 1</title>
  <g transform="matrix(2.20295 0 0 2.20295 89.3156 119.478)" fill="#ffffff" id="95eeb6da-48b0-41f0-a358-6a95412922e8">
   <path fill="#E87D22" id="svg_2" d="m-16.32414,-45.71003l3.37,0l0,4.82l0,0q-0.71,0.33 -1.56,0.48l0,0l0,0q-0.85,0.15 -2.02,0.15l0,0l0,0q-1.47,0 -2.26,-0.41l0,0l0,0q-0.78,-0.4 -1.11,-1.38l0,0l0,0q-0.33,-0.97 -0.33,-2.79l0,0l0,0q0,-1.82 0.36,-2.79l0,0l0,0q0.37,-0.98 1.25,-1.39l0,0l0,0q0.88,-0.41 2.51,-0.41l0,0l0,0q0.71,0 1.54,0.11l0,0l0,0q0.84,0.11 1.2,0.25l0,0l-0.35,2.21l0,0q-0.5,-0.11 -1.13,-0.18l0,0l0,0q-0.62,-0.08 -1.05,-0.08l0,0l0,0q-0.76,0 -1.04,0.21l0,0l0,0q-0.28,0.21 -0.28,0.77l0,0l0,3.62l1.61,0l0,-1.16l-0.71,0l0,-2.03zm7.78,-1.97l0,0q1.67,0 2.44,0.59l0,0l0,0q0.78,0.58 0.78,1.86l0,0l0,4.76l-1.4,0l-0.7,-0.7l0,0q-0.53,0.45 -1.14,0.68l0,0l0,0q-0.61,0.23 -1.24,0.23l0,0l0,0q-1.27,0 -1.86,-0.58l0,0l0,0q-0.59,-0.57 -0.59,-1.8l0,0l0,0q0,-0.86 0.36,-1.36l0,0l0,0q0.37,-0.5 1.17,-0.73l0,0l0,0q0.81,-0.22 2.18,-0.22l0,0l0.42,0l0,-0.63l0,0q-0.21,-0.06 -0.7,-0.06l0,0l0,0q-1.3,0 -2.77,0.37l0,0l-0.34,-1.94l0,0q1.57,-0.47 3.39,-0.47l0,0zm-0.55,5.53l0,0q0.55,0 0.76,-0.11l0,0l0,0q0.21,-0.12 0.21,-0.42l0,0l0,-0.87l-0.59,0l0,0q-0.54,0 -0.75,0.12l0,0l0,0q-0.21,0.13 -0.21,0.47l0,0l0,0.81l0.58,0zm13.92,-5.53l0,0q0.98,0 1.54,0.42l0,0l0,0q0.56,0.43 0.56,1.19l0,0l0,5.6l-2.8,0l0,-4.9l-0.71,0l0,0q-0.3,0 -0.42,0.09l0,0l0,0q-0.13,0.09 -0.13,0.3l0,0l0,4.51l-2.8,0l0,-4.9l-0.71,0l0,0q-0.3,0 -0.42,0.09l0,0l0,0q-0.13,0.09 -0.13,0.3l0,0l0,4.51l-2.8,0l0,-7l1.4,0l0.7,0.7l0,0q1.26,-0.91 2.66,-0.91l0,0l0,0q0.62,0 1.07,0.17l0,0l0,0q0.46,0.16 0.71,0.49l0,0l0,0q1.08,-0.66 2.28,-0.66l0,0zm7.14,5.37l0,0q1.16,0 2.49,-0.36l0,0l0.34,1.93l0,0q-1.44,0.48 -3.11,0.48l0,0l0,0q-1.9,0 -2.81,-0.91l0,0l0,0q-0.9,-0.9 -0.9,-2.8l0,0l0,0q0,-1.92 0.9,-2.82l0,0l0,0q0.89,-0.89 2.81,-0.89l0,0l0,0q1.29,0 1.99,0.22l0,0l0,0q0.7,0.21 1,0.72l0,0l0,0q0.3,0.51 0.3,1.44l0,0l0,0q0,0.85 -0.39,1.36l0,0l0,0q-0.39,0.5 -1.26,0.72l0,0l0,0q-0.86,0.23 -2.34,0.23l0,0l0,0.63l0,0q0.29,0.05 0.98,0.05l0,0zm-0.01,-3.34l0,0q-0.55,0 -0.76,0.11l0,0l0,0q-0.21,0.11 -0.21,0.42l0,0l0,0.73l0.5,0l0,0q0.55,0 0.76,-0.13l0,0l0,0q0.21,-0.12 0.21,-0.46l0,0l0,-0.67l-0.5,0zm7.08,-3.57l3.91,0l0,0q1.65,0 2.53,0.38l0,0l0,0q0.88,0.39 1.25,1.32l0,0l0,0q0.36,0.93 0.36,2.68l0,0l0,0q0,1.75 -0.36,2.67l0,0l0,0q-0.37,0.93 -1.25,1.31l0,0l0,0q-0.88,0.39 -2.53,0.39l0,0l-3.91,0l0,-8.75zm2.8,2.18l0,4.38l1.15,0l0,0q0.61,0 0.85,-0.19l0,0l0,0q0.24,-0.18 0.24,-0.69l0,0l0,-2.62l0,0q0,-0.5 -0.24,-0.69l0,0l0,0q-0.24,-0.19 -0.85,-0.19l0,0l-1.15,0zm10.08,4.73l0,0q1.16,0 2.49,-0.36l0,0l0.34,1.93l0,0q-1.44,0.48 -3.11,0.48l0,0l0,0q-1.9,0 -2.81,-0.91l0,0l0,0q-0.9,-0.9 -0.9,-2.8l0,0l0,0q0,-1.92 0.9,-2.82l0,0l0,0q0.89,-0.89 2.81,-0.89l0,0l0,0q1.29,0 1.99,0.22l0,0l0,0q0.7,0.21 1,0.72l0,0l0,0q0.3,0.51 0.3,1.44l0,0l0,0q0,0.85 -0.39,1.36l0,0l0,0q-0.39,0.5 -1.26,0.72l0,0l0,0q-0.86,0.23 -2.34,0.23l0,0l0,0.63l0,0q0.29,0.05 0.98,0.05l0,0zm-0.01,-3.34l0,0q-0.55,0 -0.76,0.11l0,0l0,0q-0.21,0.11 -0.21,0.42l0,0l0,0.73l0.5,0l0,0q0.55,0 0.76,-0.13l0,0l0,0q0.21,-0.12 0.21,-0.46l0,0l0,-0.67l-0.5,0zm8.48,-2.03l0,0q1.57,0 2.29,0.89l0,0l0,0q0.72,0.89 0.72,2.82l0,0l0,0q0,1.93 -0.72,2.82l0,0l0,0q-0.72,0.89 -2.29,0.89l0,0l0,0q-0.8,0 -1.4,-0.24l0,0l0,2.13l-2.8,0.21l0,-9.31l1.4,0l0.52,0.7l0,0q0.73,-0.91 2.28,-0.91l0,0zm0,4.93l0,-2.83l-0.85,0l0,0q-0.31,0 -0.43,0.08l0,0l0,0q-0.12,0.09 -0.12,0.31l0,0l0,2.83l0.85,0l0,0q0.31,0 0.43,-0.09l0,0l0,0q0.12,-0.08 0.12,-0.3l0,0zm7.56,2.49l0,0q-1.9,0 -2.81,-0.91l0,0l0,0q-0.9,-0.9 -0.9,-2.8l0,0l0,0q0,-1.92 0.9,-2.82l0,0l0,0q0.89,-0.89 2.81,-0.89l0,0l0,0q1.92,0 2.81,0.89l0,0l0,0q0.9,0.9 0.9,2.82l0,0l0,0q0,1.92 -0.9,2.81l0,0l0,0q-0.89,0.9 -2.81,0.9l0,0zm-0.7,-2.1l0.85,0l0,0q0.31,0 0.43,-0.09l0,0l0,0q0.12,-0.08 0.12,-0.3l0,0l0,-2.83l-0.85,0l0,0q-0.31,0 -0.43,0.08l0,0l0,0q-0.12,0.09 -0.12,0.31l0,0l0,2.83zm9.58,-3.31l-0.97,0l0,3.2l0,0q0.41,0.07 0.83,0.09l0,0l-0.13,1.89l0,0q-0.94,0.23 -1.69,0.23l0,0l0,0q-0.93,0 -1.37,-0.37l0,0l0,0q-0.44,-0.37 -0.44,-1.16l0,0l0,-3.88l-0.7,0l0,-1.8l0.7,0l0,-1.12l2.8,-0.7l0,1.82l0.97,0l0,1.8z"/>
  </g>
  <g transform="matrix(0.46551 0 0 0.46551 35.3449 126.724)" fill="#762A0C" id="f707daed-9e6c-41b1-9d4d-8d7674693ec8">
   <path fill="#E87D22" id="svg_3" d="m-46.40856,-198.78218c2,0 4,-4 8,-4s6,4 10.067,4c3.933,0 5.933,-4 9.933,-4c5,0 6,4 8,4c1,0 2,-1 2,-2l0,-23c0,-27 -40,-27 -40,0l0,23c0,1 1,2 2,2zm10,-20c-2.267,0 -4,-1.733 -4,-4c0,-2.266 1.733,-4 4,-4s4,1.734 4,4c0,2.267 -1.733,4 -4,4zm16,0c-2.267,0 -4,-1.733 -4,-4c0,-2.266 1.733,-4 4,-4s4,1.734 4,4c0,2.267 -1.733,4 -4,4zm-44.667,31.667c-3.333,0 -3.333,0 -3.333,-3.333l0,-73.334c0,-3.333 0,-3.333 3.333,-3.333l73.334,0c3.333,0 3.333,0 3.333,3.333l0,73.334c0,3.333 0,3.333 -3.333,3.333l-73.334,0zm6.667,-66.667a3.301,3.301 0 0 0 3.333,-3.333a3.301,3.301 0 0 0 -3.333,-3.333a3.301,3.301 0 0 0 -3.333,3.333a3.301,3.301 0 0 0 3.333,3.333zm10.067,0c1.933,0 3.333,-1.466 3.333,-3.333c0,-1.867 -1.4,-3.333 -3.333,-3.333a3.301,3.301 0 0 0 -3.334,3.333a3.301,3.301 0 0 0 3.334,3.333zm9.933,0a3.301,3.301 0 0 0 3.333,-3.333a3.301,3.301 0 0 0 -3.333,-3.333a3.301,3.301 0 0 0 -3.333,3.333a3.301,3.301 0 0 0 3.333,3.333zm0,0"/>
  </g>
 </g>
</svg>